<svg id="Capa_1" data-name="Capa 1" xmlns="http://www.w3.org/2000/svg" viewBox="0 0 746.67 206.69"><path d="M33,33.11V63.55a5.62,5.62,0,0,0,5.62,5.62H80.12a5.62,5.62,0,0,1,5.62,5.62v9.7a5.62,5.62,0,0,1-5.62,5.61H38.58A5.62,5.62,0,0,0,33,95.72v46.12a5.62,5.62,0,0,1-5.62,5.62h-15a5.62,5.62,0,0,1-5.62-5.62V12.27a5.62,5.62,0,0,1,5.62-5.62H89.85a5.62,5.62,0,0,1,5.62,5.62v9.6a5.61,5.61,0,0,1-5.62,5.62H38.58A5.62,5.62,0,0,0,33,33.11Z" transform="translate(-6.67 -6.65)" fill="#036"/><path d="M173.57,126.33a34.54,34.54,0,0,0,13.58-2.53,27.94,27.94,0,0,0,10.08-7.11,31.36,31.36,0,0,0,6.28-11.1A45.75,45.75,0,0,0,205.7,91V12.27a5.62,5.62,0,0,1,5.62-5.62h15a5.62,5.62,0,0,1,5.61,5.62V91a64.84,64.84,0,0,1-4,23.22,51.5,51.5,0,0,1-29.94,30.48A64.88,64.88,0,0,1,173.57,149a65.16,65.16,0,0,1-24.44-4.34,51.55,51.55,0,0,1-29.95-30.48,65.06,65.06,0,0,1-4-23.22V12.27a5.62,5.62,0,0,1,5.62-5.62h15a5.62,5.62,0,0,1,5.62,5.62V90.88a45.75,45.75,0,0,0,2.19,14.61,31.49,31.49,0,0,0,6.33,11.15A28,28,0,0,0,160,123.8,34.59,34.59,0,0,0,173.57,126.33Z" transform="translate(-6.67 -6.65)" fill="#036"/><path d="M380.2,12.27V141.84a5.62,5.62,0,0,1-5.62,5.62h-7.82a11.83,11.83,0,0,1-5.21-1,12.3,12.3,0,0,1-4-3.46L284,49.11q.58,6.42.58,11.88v80.85a5.62,5.62,0,0,1-5.62,5.62H267.11a5.62,5.62,0,0,1-5.61-5.62V12.27a5.62,5.62,0,0,1,5.61-5.62h8.12a23.83,23.83,0,0,1,2.87.15,7.06,7.06,0,0,1,2.14.58A7.15,7.15,0,0,1,282,8.65,20,20,0,0,1,284,10.84L357.8,105.1c-.19-2.27-.36-4.51-.49-6.72s-.19-4.25-.19-6.13v-80a5.62,5.62,0,0,1,5.62-5.62h11.84A5.62,5.62,0,0,1,380.2,12.27Z" transform="translate(-6.67 -6.65)" fill="#036"/><path d="M529.08,14.38,476.75,143.94a5.62,5.62,0,0,1-5.21,3.52H455.46a5.62,5.62,0,0,1-5.21-3.52L397.92,14.38a5.62,5.62,0,0,1,5.21-7.73h12.7a8.81,8.81,0,0,1,5.55,1.66,10.16,10.16,0,0,1,3.22,4.28l33.2,85.89q1.67,4.18,3.17,9.2t2.87,10.47q1.17-5.46,2.53-10.47a88.72,88.72,0,0,1,3-9.2l33-85.89a9.25,9.25,0,0,1,3.07-4.09,8.63,8.63,0,0,1,5.6-1.85h12.8A5.62,5.62,0,0,1,529.08,14.38Z" transform="translate(-6.67 -6.65)" fill="#036"/><path d="M753.33,131.46v10.38a5.62,5.62,0,0,1-5.62,5.62H676.47a5.62,5.62,0,0,1-5.61-5.62V12.27a5.62,5.62,0,0,1,5.61-5.62h15a5.62,5.62,0,0,1,5.62,5.62V125.84h50.66A5.62,5.62,0,0,1,753.33,131.46Z" transform="translate(-6.67 -6.65)" fill="#036"/><path d="M587.55,117.42A48.46,48.46,0,0,0,551.92,133c-7.73,8.26-10.59,15.23-21.77,14.42a11.23,11.23,0,0,1-10.16-16L575.25,14.45a13.6,13.6,0,0,1,14.67-7.59,14,14,0,0,1,10.11,8l55.08,116.55a11.23,11.23,0,0,1-10.15,16c-11.19.81-14-6.16-21.78-14.42A48.43,48.43,0,0,0,587.55,117.42Z" transform="translate(-6.67 -6.65)" fill="#09f"/><path d="M119.52,212.73V181.8h4.54v30.93Z" transform="translate(-6.67 -6.65)" fill="#09f"/><path d="M171.66,212.73h-5l-17.78-23.88v23.88h-4.53V181.8h5l17.77,23.9V181.8h4.54Z" transform="translate(-6.67 -6.65)" fill="#09f"/><path d="M203.81,212.73h-4.54V185.8H189.6v-4h23.88v4h-9.67Z" transform="translate(-6.67 -6.65)" fill="#09f"/><path d="M231.42,212.73V181.8H250.7v4H236v9.26h13.89v4H236v9.67h14.95v4Z" transform="translate(-6.67 -6.65)" fill="#09f"/><path d="M295.18,212.73h-5.05l-7.07-12.11h-7.53v12.11H271V181.8h12a14.23,14.23,0,0,1,5.93,1.13,8.77,8.77,0,0,1,3.82,3.24,9.19,9.19,0,0,1,1.34,5,8.56,8.56,0,0,1-6.39,8.72Zm-19.65-15.94h7.16a7.7,7.7,0,0,0,5-1.45,5.48,5.48,0,0,0,0-8.09,7.67,7.67,0,0,0-5-1.45h-7.16Z" transform="translate(-6.67 -6.65)" fill="#09f"/><path d="M341.13,212.73h-5l-17.78-23.88v23.88h-4.53V181.8h5l17.77,23.9V181.8h4.54Z" transform="translate(-6.67 -6.65)" fill="#09f"/><path d="M364,212.73h-4.76l12.57-30.93h4.87l12.56,30.93h-4.77L381.38,205H367.09ZM368.64,201h11.2l-5.61-14.12Z" transform="translate(-6.67 -6.65)" fill="#09f"/><path d="M433.72,208.79a15.23,15.23,0,0,1-5.1,3.35,17.81,17.81,0,0,1-12.88,0,15.26,15.26,0,0,1-5.12-3.37,15.63,15.63,0,0,1-3.39-5.11,17.75,17.75,0,0,1,0-12.83,15.38,15.38,0,0,1,3.39-5.1,15.09,15.09,0,0,1,5.12-3.36,17.76,17.76,0,0,1,12.86,0,15.15,15.15,0,0,1,5.08,3.33l-3.16,3.21a11,11,0,0,0-8.41-3.75,11.38,11.38,0,0,0-4.56.9,10.91,10.91,0,0,0-3.62,2.53,11.67,11.67,0,0,0-2.41,3.85,14,14,0,0,0,0,9.61,11.53,11.53,0,0,0,2.41,3.84,10.8,10.8,0,0,0,3.62,2.54,11.38,11.38,0,0,0,4.56.9,11.14,11.14,0,0,0,4.71-1,10.94,10.94,0,0,0,3.68-2.76Z" transform="translate(-6.67 -6.65)" fill="#09f"/><path d="M452.82,212.73V181.8h4.53v30.93Z" transform="translate(-6.67 -6.65)" fill="#09f"/><path d="M492.48,213.35a17,17,0,0,1-6.46-1.2,15.2,15.2,0,0,1-8.49-8.48,17.75,17.75,0,0,1,0-12.83,15.15,15.15,0,0,1,8.5-8.46,17,17,0,0,1,6.47-1.2,16.83,16.83,0,0,1,6.42,1.2,15.19,15.19,0,0,1,8.48,8.46,17.75,17.75,0,0,1,0,12.83,15.23,15.23,0,0,1-8.48,8.48A16.9,16.9,0,0,1,492.48,213.35Zm0-4a11.42,11.42,0,0,0,4.56-.91,11,11,0,0,0,3.65-2.55,11.58,11.58,0,0,0,2.41-3.83,13.83,13.83,0,0,0,0-9.6,11.67,11.67,0,0,0-2.41-3.85,10.93,10.93,0,0,0-3.65-2.53,12,12,0,0,0-9.13,0,10.93,10.93,0,0,0-3.65,2.53,11.7,11.7,0,0,0-2.42,3.85,13.7,13.7,0,0,0,0,9.61,11.55,11.55,0,0,0,2.42,3.84,10.82,10.82,0,0,0,3.65,2.54A11.43,11.43,0,0,0,492.48,209.35Z" transform="translate(-6.67 -6.65)" fill="#09f"/><path d="M554.87,212.73h-5l-17.77-23.88v23.88h-4.54V181.8h5l17.78,23.9V181.8h4.53Z" transform="translate(-6.67 -6.65)" fill="#09f"/><path d="M577.75,212.73H573l12.58-30.93h4.87L603,212.73h-4.76L595.13,205H580.84ZM582.39,201h11.19L588,186.83Z" transform="translate(-6.67 -6.65)" fill="#09f"/><path d="M640.48,212.73H621.09V181.8h4.54v26.93h14.85Z" transform="translate(-6.67 -6.65)" fill="#09f"/></svg>